<?xml version="1.0" standalone="no"?>
<!DOCTYPE svg PUBLIC "-//W3C//DTD SVG 20010904//EN"
 "http://www.w3.org/TR/2001/REC-SVG-20010904/DTD/svg10.dtd">
<svg version="1.0" xmlns="http://www.w3.org/2000/svg"
 width="1935.000000pt" height="1935.000000pt" viewBox="0 0 1935.000000 1935.000000"
 preserveAspectRatio="xMidYMid meet">
<metadata>
Created by potrace 1.11, written by Peter Selinger 2001-2013
</metadata>
<g transform="translate(0.000000,1935.000000) scale(0.100000,-0.100000)"
fill="#000000" stroke="none">
<path d="M0 13696 l0 -5655 27 -3 c23 -2 29 -10 38 -45 5 -23 19 -51 30 -63
18 -20 31 -100 16 -100 -3 0 -7 -29 -8 -65 -1 -50 2 -65 13 -65 8 0 14 -6 14
-13 0 -21 35 -48 54 -41 9 3 16 17 16 30 0 27 17 32 26 9 5 -11 10 -13 19 -5
9 8 14 6 19 -6 9 -24 8 -31 -10 -48 -22 -23 -27 -226 -7 -279 9 -20 20 -38 27
-39 6 0 18 -1 26 -2 10 -1 18 -19 25 -52 12 -62 28 -83 63 -82 56 2 232 -92
232 -123 0 -6 5 -7 11 -4 7 5 9 -3 7 -21 -2 -24 -10 -31 -43 -42 -22 -7 -48
-24 -58 -38 -16 -21 -17 -29 -6 -62 7 -20 18 -43 26 -50 15 -16 43 -9 43 10 0
15 48 58 65 58 7 0 15 -10 19 -22 7 -29 -14 -88 -31 -88 -16 0 -17 -32 -1 -48
18 -18 42 -15 56 8 8 13 23 20 44 20 17 0 40 7 50 17 17 15 18 14 18 -25 0
-28 -7 -50 -21 -66 -32 -37 -87 -156 -82 -177 3 -12 24 -24 59 -34 l53 -15 28
29 c22 23 33 27 51 20 28 -10 29 -39 1 -46 -17 -5 -20 -12 -17 -47 3 -41 3
-41 46 -42 44 -2 74 -23 97 -69 7 -13 24 -22 50 -25 l39 -5 -3 -52 c-3 -57 13
-97 60 -151 16 -18 29 -39 29 -47 0 -7 12 -23 27 -35 23 -18 37 -21 73 -17 56
7 100 26 100 44 0 15 12 17 26 3 5 -5 38 -13 72 -16 l62 -7 19 44 c10 24 28
49 39 56 11 7 23 26 27 44 4 19 15 33 26 36 10 3 19 11 19 19 0 7 11 16 25 20
28 7 98 -34 116 -68 7 -12 21 -18 45 -18 20 0 49 -8 64 -17 28 -16 30 -16 66
12 23 18 66 35 113 46 45 11 80 25 86 35 21 35 57 74 65 69 4 -2 23 12 43 32
43 42 63 39 73 -11 3 -21 12 -36 20 -36 8 0 22 -4 32 -9 25 -13 108 -31 141
-31 25 0 32 7 55 56 26 55 27 56 61 50 18 -4 36 -2 39 3 4 6 17 4 34 -4 23
-12 40 -11 111 2 66 12 91 13 116 4 46 -16 59 -14 127 20 51 26 69 30 105 25
43 -6 43 -5 45 27 2 55 -2 69 -23 88 -25 21 -19 49 10 49 11 0 22 6 25 13 4 8
9 6 18 -7 42 -61 50 -66 98 -55 85 20 95 29 98 84 4 71 10 85 27 62 33 -46 88
3 105 93 11 56 33 84 77 96 11 3 23 14 26 25 8 31 32 22 53 -20 13 -27 28 -42
47 -48 32 -9 39 -26 14 -31 -11 -2 -17 3 -18 15 0 14 -3 12 -10 -6 -15 -37 -7
-53 25 -57 16 -2 44 -10 63 -19 26 -13 32 -20 23 -29 -23 -29 6 -55 44 -40 24
9 19 25 -15 54 -25 20 -30 31 -25 48 9 28 46 29 71 2 23 -25 62 -26 69 -2 3
10 10 51 15 91 5 40 12 76 16 79 3 4 30 9 58 12 63 6 69 21 33 79 -29 45 -36
45 -98 2 -38 -27 -60 -71 -73 -143 -5 -35 -8 -38 -40 -38 -41 0 -43 3 -47 69
-3 50 -19 74 -45 70 -59 -10 -76 25 -39 82 23 35 31 39 66 39 31 0 47 7 73 31
37 36 117 79 146 79 11 0 22 9 26 20 4 11 11 18 16 14 6 -3 13 4 16 15 8 31
28 20 28 -15 0 -40 31 -45 45 -8 14 35 6 54 -21 54 -28 0 -20 18 16 38 17 9
32 20 33 25 2 4 8 7 13 7 6 0 6 -8 -1 -19 -12 -24 -13 -31 -1 -31 5 0 12 8 14
17 4 14 5 12 6 -4 0 -13 -3 -23 -9 -23 -14 0 -12 -73 2 -91 30 -36 92 -42 102
-11 3 9 19 26 35 36 20 14 31 31 35 56 3 20 17 47 31 60 14 13 25 28 25 33 0
15 104 107 121 107 5 0 8 5 7 11 -2 6 5 13 14 14 10 2 25 10 33 19 9 9 27 19
41 22 13 3 24 10 24 15 0 12 33 12 45 0 6 -5 19 -11 30 -13 13 -2 23 -16 30
-42 13 -45 34 -58 42 -27 3 12 9 21 14 21 13 0 70 56 83 81 6 13 18 25 26 25
8 1 23 2 32 3 15 1 16 5 6 26 -12 27 4 105 22 105 6 0 29 20 52 45 38 40 46
44 79 40 46 -6 116 30 140 72 10 17 24 27 35 26 14 -1 20 5 22 23 1 13 11 38
23 53 12 16 19 35 17 41 -6 19 72 96 115 114 47 19 64 36 73 70 3 14 10 26 15
26 5 0 9 10 9 21 0 17 3 19 14 10 7 -6 22 -8 32 -4 25 9 76 64 98 105 12 22
26 35 42 36 13 1 24 -2 24 -7 0 -23 31 -38 75 -36 45 2 46 1 40 -25 -4 -19 -2
-29 9 -33 19 -8 38 16 30 37 -9 23 22 44 63 44 45 0 50 5 57 62 4 29 11 48 16
45 6 -4 13 0 16 8 5 15 53 40 70 36 45 -8 76 19 53 47 -20 24 -3 44 38 43 21
-1 57 2 81 6 38 7 46 14 88 76 39 60 54 73 110 99 35 17 64 36 64 43 1 23 60
78 91 84 35 7 47 28 31 54 -18 28 -14 78 8 109 15 21 31 29 62 34 136 17 153
22 187 54 18 18 39 32 47 32 8 0 32 17 55 37 40 36 41 36 68 20 33 -19 41 -14
41 25 0 16 5 38 11 49 9 17 17 19 49 14 24 -4 56 -1 87 9 26 9 64 18 83 21 47
7 110 59 110 90 0 13 5 27 10 30 6 4 8 9 6 13 -2 4 26 7 62 7 56 0 73 -4 101
-25 18 -14 37 -35 41 -46 14 -36 46 -36 89 -1 21 18 59 44 85 59 38 23 46 33
46 57 0 26 4 30 38 36 30 5 40 12 49 36 6 16 20 32 30 35 55 18 69 28 83 57
17 36 49 46 86 26 29 -15 42 -5 26 21 -27 44 -3 84 58 96 24 5 36 15 43 35 6
15 19 30 29 32 11 3 18 15 19 29 0 21 1 21 8 3 7 -18 8 -17 14 7 4 14 18 33
32 42 25 17 34 59 15 71 -5 3 -10 17 -10 31 0 20 5 24 29 24 17 0 32 4 36 10
3 5 31 22 63 38 53 27 59 28 80 14 21 -14 25 -14 39 1 21 20 11 72 -22 117
-20 28 -23 40 -18 79 7 59 13 65 48 47 20 -11 34 -12 47 -5 10 5 23 7 28 4 6
-3 10 1 10 11 0 20 -28 43 -52 44 -23 0 -25 6 -33 79 -7 72 7 121 35 121 23 0
33 26 19 52 -6 12 -15 52 -20 89 -5 38 -14 77 -21 88 -10 17 -7 23 20 46 18
15 32 33 32 40 0 7 17 20 39 28 41 17 53 40 45 88 -2 16 -6 43 -9 59 -3 22 -1
30 11 30 23 0 30 31 10 46 -10 7 -24 10 -31 8 -13 -5 -32 33 -37 76 -2 19 -11
26 -46 35 -54 13 -74 38 -70 89 1 24 -3 42 -12 50 -47 37 -51 88 -9 139 28 33
30 41 23 84 -4 28 -16 57 -30 72 -24 26 -32 65 -14 76 5 3 14 33 21 66 9 47
18 64 40 80 23 16 27 24 19 43 -5 13 -20 36 -34 51 -31 34 -33 56 -6 80 20 18
27 75 14 109 -7 17 -39 22 -48 7 -6 -10 -52 -4 -83 11 -17 8 -20 15 -13 28 5
10 7 20 4 23 -3 3 4 11 16 17 11 6 25 23 31 36 7 21 5 29 -13 46 -13 11 -17
16 -9 12 10 -5 13 -3 9 8 -7 18 17 41 75 71 71 36 88 58 90 111 2 37 -3 52
-18 64 -11 10 -25 28 -32 42 -16 33 -11 147 9 185 30 58 30 72 2 116 -31 50
-46 96 -33 104 5 4 9 14 9 25 0 20 19 30 56 30 70 0 152 87 129 138 -5 12 -13
22 -17 22 -15 0 -9 78 7 84 22 8 36 -28 29 -74 -7 -44 -7 -44 45 -30 20 5 49
12 64 15 21 4 33 17 47 48 26 57 25 83 -6 120 -15 18 -23 38 -21 49 7 24 -27
93 -54 111 -20 14 -20 16 -4 41 20 30 30 31 65 11 41 -23 79 -19 86 9 3 13 14
26 25 29 11 3 19 14 19 25 0 22 -37 55 -52 46 -4 -3 -5 2 -2 10 3 9 1 16 -5
16 -18 0 -13 19 13 45 16 16 27 41 31 72 3 27 10 58 16 71 16 41 11 93 -10 99
-17 4 -61 85 -61 111 0 5 -9 31 -21 57 -21 49 -20 66 5 46 39 -33 116 -31 116
2 0 17 46 37 100 44 36 4 49 1 60 -12 11 -14 12 -20 1 -38 -11 -17 -11 -22 1
-31 21 -16 47 -69 44 -91 -2 -11 -9 -22 -17 -26 -52 -25 -70 -31 -99 -33 -17
-1 -35 -8 -40 -16 -12 -22 16 -148 52 -240 6 -14 12 -49 14 -78 4 -50 45 -152
62 -152 4 0 23 30 42 66 26 49 43 69 67 79 29 12 35 12 50 -3 9 -9 34 -22 55
-28 37 -12 39 -11 60 20 12 17 30 39 40 49 10 10 18 26 18 35 0 29 21 42 65
42 23 0 46 5 53 12 14 14 16 48 2 48 -5 0 -25 16 -45 36 l-36 35 31 12 c17 6
30 19 30 28 0 24 36 105 51 114 13 9 39 -20 39 -42 0 -7 -11 -19 -25 -25 -38
-17 -41 -44 -8 -73 39 -34 84 -41 138 -20 45 17 45 17 45 65 0 44 -3 51 -40
80 -54 43 -62 60 -48 102 20 59 35 67 96 51 29 -8 58 -13 65 -12 31 4 47 -2
47 -18 0 -21 -25 -97 -42 -131 -10 -19 -8 -29 7 -55 24 -42 34 -48 70 -41 26
4 33 1 48 -26 10 -17 24 -29 30 -26 7 3 29 10 51 17 36 12 40 11 56 -9 23 -28
38 -28 70 3 18 18 42 27 76 31 49 6 50 6 77 -34 14 -22 39 -47 54 -54 28 -13
28 -14 31 -122 2 -85 7 -115 21 -135 9 -14 23 -45 29 -68 8 -28 20 -44 34 -49
12 -4 40 -24 61 -46 36 -36 42 -39 90 -36 47 3 51 5 59 34 14 54 83 66 94 16
9 -44 20 -57 50 -59 16 0 35 -2 42 -2 15 -1 33 -46 26 -65 -3 -8 -20 -20 -37
-27 -48 -19 -67 -39 -67 -73 0 -19 -10 -40 -28 -59 l-27 -29 24 -19 c13 -10
33 -19 46 -19 12 0 28 -7 35 -15 9 -11 28 -14 74 -11 33 3 73 5 87 5 50 2 64
106 23 169 -13 19 -18 21 -30 11 -13 -10 -17 -10 -25 2 -7 11 -9 9 -9 -8 0
-13 -8 -24 -20 -28 -25 -8 -40 1 -40 25 0 20 7 23 82 35 33 5 39 10 49 45 10
34 9 42 -10 73 -13 21 -18 38 -12 41 9 6 90 -8 95 -16 1 -1 13 -46 26 -98 13
-52 34 -110 47 -129 13 -19 23 -37 23 -40 0 -14 -19 -34 -41 -45 -23 -11 -24
-17 -24 -103 0 -50 -2 -93 -5 -95 -3 -2 -18 -8 -35 -14 -42 -13 -42 -37 0 -79
43 -41 45 -41 94 -16 20 10 57 23 83 29 25 7 63 23 83 36 20 14 44 28 53 30
10 3 23 15 30 26 10 17 10 24 -3 43 -20 28 -19 34 6 47 14 8 24 8 33 1 9 -7
16 -7 24 1 9 9 12 7 12 -10 0 -27 13 -33 77 -35 46 -2 49 -4 67 -44 13 -26 29
-44 43 -48 30 -7 39 -46 19 -77 -16 -24 -16 -25 -16 -62 0 -18 -14 -33 -55
-61 -35 -23 -55 -43 -55 -56 0 -10 3 -19 8 -19 4 0 13 -15 21 -32 8 -18 36
-53 63 -77 39 -34 48 -49 46 -70 -2 -19 -8 -25 -22 -23 -31 6 -64 -7 -68 -26
-2 -9 4 -39 14 -65 14 -41 16 -72 12 -194 -3 -81 -9 -154 -15 -164 -5 -10 -9
-40 -9 -68 0 -31 -6 -55 -15 -65 -8 -8 -15 -19 -15 -25 0 -6 -10 -13 -23 -16
-17 -5 -28 -22 -45 -70 -29 -82 -28 -91 8 -110 34 -17 37 -27 15 -45 -8 -7
-15 -18 -15 -26 0 -7 -8 -17 -17 -22 -12 -7 -17 -24 -18 -61 -1 -33 -7 -57
-19 -70 -22 -24 -34 -134 -18 -154 8 -9 9 -24 2 -48 -6 -18 -10 -35 -10 -36 0
-9 61 -62 83 -71 15 -6 27 -18 27 -26 0 -16 -46 -56 -65 -56 -17 0 -25 -23
-25 -68 0 -42 26 -123 42 -133 6 -4 12 -28 13 -54 1 -37 6 -51 26 -66 20 -15
22 -21 11 -36 -41 -60 -36 -138 11 -161 38 -19 36 -49 -5 -60 -29 -7 -33 -13
-36 -48 -2 -21 -12 -48 -22 -59 -11 -11 -31 -42 -45 -69 -20 -37 -23 -51 -14
-62 18 -22 58 -16 83 11 13 14 28 25 34 25 22 0 23 -22 3 -44 -18 -19 -20 -30
-14 -71 6 -48 6 -48 24 -27 20 26 43 27 92 7 70 -29 91 -109 41 -159 -15 -14
-33 -26 -40 -26 -15 0 -29 -43 -20 -58 3 -5 25 -13 50 -16 26 -4 52 -16 66
-31 12 -13 39 -26 59 -30 l36 -6 0 -63 c0 -58 3 -66 33 -97 17 -18 32 -36 32
-39 0 -7 -71 -43 -74 -38 -1 2 -6 17 -12 33 -9 27 -14 30 -49 29 -22 -1 -43 3
-47 10 -4 6 -8 -1 -8 -16 0 -16 4 -28 10 -28 5 0 28 -8 50 -17 35 -15 40 -22
40 -50 0 -76 16 -89 122 -96 63 -5 85 -17 90 -50 3 -20 9 -22 66 -21 48 1 62
-2 62 -13 0 -8 -8 -17 -18 -19 -17 -5 -52 -74 -52 -103 0 -22 22 -81 46 -125
16 -29 32 -43 60 -53 45 -15 67 -39 58 -65 -9 -31 6 -41 30 -20 11 11 38 23
60 26 26 5 40 13 43 27 5 17 11 19 52 13 52 -7 85 -29 63 -43 -7 -4 -24 -6
-36 -4 -13 3 -27 0 -31 -7 -10 -16 44 -89 69 -95 25 -5 69 -2 76 5 3 3 29 13
58 22 44 14 63 15 107 5 50 -10 55 -9 87 15 48 36 77 44 84 21 4 -10 25 -37
48 -60 22 -22 51 -53 64 -67 28 -32 30 -32 72 -1 19 14 41 25 51 25 9 0 22 14
29 31 8 17 18 28 26 25 8 -3 15 9 21 32 13 55 36 48 40 -12 l3 -49 -32 6 c-31
6 -32 6 -10 -6 12 -7 19 -16 16 -20 -4 -4 25 -7 64 -7 44 0 76 -5 84 -13 31
-30 118 -76 145 -75 60 1 66 -1 53 -17 -13 -16 -14 -16 44 -19 l28 -2 -22 18
c-18 15 -19 18 -5 18 14 0 14 2 3 13 -7 7 -21 16 -30 20 -21 8 -23 21 -4 36
14 12 29 13 130 5 56 -5 69 -9 73 -25 3 -10 9 -19 13 -19 7 0 16 -38 22 -91 1
-9 7 -15 13 -13 5 2 16 -5 22 -16 15 -23 1 -70 -21 -70 -20 0 -46 28 -46 50 0
22 -31 34 -60 25 -17 -5 -20 -14 -18 -47 1 -26 8 -43 20 -49 9 -5 22 -27 28
-48 8 -31 19 -44 52 -61 l42 -22 18 24 c10 13 21 36 25 51 15 72 103 49 113
-29 4 -33 10 -42 43 -57 33 -15 38 -22 33 -42 -11 -42 8 -72 45 -73 42 -1 59
-24 59 -77 0 -35 4 -44 25 -53 14 -7 38 -12 53 -12 15 -1 38 -7 52 -15 38 -22
76 -18 106 10 l27 25 29 -25 c16 -14 36 -25 45 -25 26 0 87 -62 98 -99 10 -34
13 -36 56 -39 l46 -3 -5 -49 c-3 -35 0 -57 12 -74 20 -31 20 -36 2 -36 -25 0
-36 -24 -26 -56 5 -16 12 -41 15 -55 7 -37 33 -45 47 -14 6 14 16 25 21 25 5
0 15 7 22 17 19 26 43 10 37 -26 -2 -17 -8 -31 -12 -31 -21 0 -19 -35 3 -59
21 -22 25 -39 30 -114 4 -72 2 -87 -9 -83 -18 7 -34 -24 -34 -64 0 -36 16 -45
55 -30 26 10 27 13 22 59 -4 30 -1 53 6 60 12 12 126 16 129 4 0 -5 2 -19 3
-33 1 -14 5 -43 9 -64 l7 -38 -30 7 c-27 6 -32 3 -43 -19 -10 -23 -8 -30 15
-54 21 -21 27 -38 27 -70 0 -37 3 -42 23 -42 17 0 27 10 40 40 9 22 21 40 25
40 5 0 19 9 32 20 13 11 31 20 42 20 24 0 41 -45 34 -88 -4 -29 -1 -34 32 -51
48 -25 68 -46 97 -101 32 -62 58 -61 65 2 5 42 36 96 48 83 3 -2 18 5 33 16
19 13 29 29 29 46 0 19 4 24 16 19 9 -3 18 -6 21 -6 3 0 0 -7 -7 -15 -7 -9 -8
-15 -2 -15 5 0 8 -9 5 -20 -3 -11 -9 -20 -15 -20 -5 0 -3 -6 4 -14 7 -8 16
-12 19 -10 4 2 10 -3 13 -12 4 -9 9 -14 13 -11 3 4 15 -5 26 -19 16 -20 26
-25 48 -20 32 6 58 -16 41 -36 -6 -7 -13 -29 -17 -48 -5 -32 -3 -37 29 -58 27
-18 42 -22 66 -17 32 7 34 9 44 57 4 19 15 30 31 34 19 5 25 13 25 33 0 36 11
71 21 71 5 0 9 -6 9 -12 0 -15 75 -88 90 -88 5 0 10 -7 10 -15 0 -8 7 -15 15
-15 8 0 22 -12 32 -27 21 -35 60 -71 84 -78 26 -8 24 -20 -5 -33 -22 -10 -43
-43 -59 -94 -9 -27 -65 -33 -96 -11 -14 11 -42 23 -62 27 -35 6 -37 5 -41 -23
-2 -17 1 -43 7 -58 13 -30 10 -53 -7 -53 -18 0 -38 -28 -38 -54 0 -36 21 -129
31 -140 14 -15 11 -52 -6 -66 -8 -7 -15 -18 -15 -24 0 -7 4 -6 9 2 7 11 9 11
14 -2 4 -10 18 -16 37 -16 18 0 37 -8 47 -20 10 -11 22 -20 28 -20 30 -1 36
-16 24 -65 l-12 -48 -18 24 c-15 20 -19 21 -33 10 -18 -15 -21 -57 -6 -95 13
-36 34 -32 50 9 11 28 19 35 40 35 15 0 35 -9 45 -20 10 -11 24 -20 31 -20 8
0 17 -12 20 -27 4 -15 18 -42 31 -61 12 -19 23 -41 23 -48 0 -23 33 -54 57
-54 12 0 36 -13 52 -29 17 -16 40 -32 53 -36 13 -4 30 -13 38 -21 9 -7 35 -15
58 -16 23 -2 44 -9 47 -15 6 -17 32 -17 42 0 10 15 49 37 67 37 8 0 16 7 20
15 7 19 46 19 72 1 15 -11 19 -26 18 -65 0 -50 6 -58 40 -52 5 1 22 -11 38
-26 27 -26 35 -28 114 -28 76 0 85 -2 80 -17 -5 -22 17 -24 34 -3 26 31 138
10 153 -29 3 -8 -1 -20 -9 -26 -11 -10 -14 -10 -14 0 0 10 -4 9 -18 -2 -9 -8
-25 -18 -34 -21 -33 -12 -12 -54 43 -90 22 -15 28 -15 44 -3 12 8 27 11 40 7
11 -4 31 -7 45 -7 14 1 38 -11 55 -26 36 -33 36 -33 68 -8 14 11 39 23 55 26
30 6 36 1 80 -63 23 -33 87 -12 98 32 7 29 29 39 55 25 23 -13 25 -33 4 -50
-21 -18 -19 -92 3 -118 22 -25 63 -37 97 -28 20 5 25 13 25 36 0 19 7 33 20
40 22 12 24 8 20 -45 -1 -16 -5 -34 -10 -40 -4 -5 3 -21 15 -33 l22 -24 35 31
c28 24 46 31 84 33 43 3 50 0 59 -21 6 -13 28 -31 52 -42 31 -13 46 -28 57
-52 8 -19 21 -39 30 -44 8 -4 26 -29 39 -53 29 -55 75 -76 119 -54 32 16 41
18 33 5 -7 -13 33 -34 51 -27 8 3 19 17 24 31 7 18 17 25 35 25 15 0 34 4 44
10 14 7 30 1 71 -26 47 -31 57 -34 83 -24 38 13 107 13 107 0 0 -5 5 -10 10
-10 6 0 10 18 10 41 0 45 -24 73 -72 84 -15 4 -32 13 -39 21 -17 21 -6 97 20
130 13 16 19 35 16 46 -9 26 12 22 39 -7 13 -14 26 -25 30 -25 3 0 6 3125 6
6945 l0 6945 -8579 0 c-8462 0 -8579 0 -8574 -19 4 -14 -3 -24 -26 -35 -27
-15 -29 -19 -20 -42 14 -38 3 -61 -34 -68 -32 -7 -57 11 -57 40 0 18 -25 24
-58 15 -16 -5 -36 -5 -45 1 -21 11 -47 60 -47 88 0 19 -6 20 -120 20 l-120 0
0 -26 c0 -16 -5 -24 -12 -21 -7 2 -13 14 -12 26 l1 21 -824 0 -823 0 0 -5654z
m1740 5609 c0 -8 -4 -15 -9 -15 -5 0 -14 7 -21 15 -10 13 -9 15 9 15 12 0 21
-6 21 -15z m4386 -2551 c5 -29 13 -38 45 -51 42 -16 42 -16 33 -61 -5 -26 -10
-30 -33 -28 -20 2 -29 11 -38 37 -7 19 -12 42 -12 51 -1 9 -10 20 -21 23 -28
9 -29 65 0 65 14 0 21 -9 26 -36z m144 -204 c19 -17 41 -35 48 -41 14 -11 15
-28 3 -48 -12 -18 -41 -7 -48 19 -6 22 -18 26 -28 10 -11 -17 -24 -11 -39 18
-18 34 -11 72 13 72 9 0 32 -14 51 -30z m148 -207 c6 -9 12 -27 12 -39 0 -12
10 -28 23 -37 23 -15 54 -42 120 -105 34 -31 68 -81 67 -97 -2 -54 3 -69 38
-108 40 -44 108 -175 118 -227 4 -16 9 -30 13 -30 19 -1 62 -50 67 -76 2 -16
15 -38 28 -49 13 -11 31 -34 39 -51 9 -17 33 -46 54 -65 43 -37 56 -61 47 -84
-11 -27 -29 -16 -107 58 -59 56 -77 80 -82 110 -4 21 -16 42 -26 47 -12 7 -21
27 -25 59 -6 47 -7 49 -48 57 -33 7 -45 16 -61 46 -26 46 -105 151 -154 204
-24 26 -42 58 -50 88 -12 49 -31 85 -64 121 -12 13 -17 30 -14 50 4 25 -4 38
-49 83 -63 63 -63 84 -1 70 23 -5 48 -16 55 -25z m-675 -984 c4 -15 1 -19 -11
-17 -21 4 -29 38 -9 38 8 0 17 -9 20 -21z m3651 -717 c-1 -6 -2 -28 -2 -47 -2
-28 -8 -39 -34 -55 -40 -24 -37 -24 -67 -1 -19 14 -22 24 -17 45 5 22 10 25
31 20 20 -5 28 -1 42 25 17 30 49 39 47 13z m-4236 -1884 c8 -32 10 -33 66
-36 40 -2 65 2 81 12 13 9 38 17 55 18 28 3 33 -1 43 -32 l12 -35 70 -3 c62
-2 72 -6 80 -25 14 -30 37 -28 53 6 15 30 51 37 72 12 26 -32 95 -62 143 -63
52 0 97 -23 97 -48 0 -16 67 -84 82 -84 5 0 15 -15 23 -34 9 -21 23 -36 40
-40 16 -4 30 -18 39 -39 10 -25 25 -38 60 -51 41 -16 45 -20 40 -43 -6 -21 2
-33 45 -75 71 -69 66 -103 -22 -143 -53 -25 -65 -23 -94 16 -10 14 -29 16
-113 13 -55 -2 -109 -8 -119 -14 -11 -5 -30 -30 -42 -55 -23 -46 -51 -59 -63
-30 -6 17 -41 20 -51 6 -3 -5 5 -17 17 -26 21 -14 23 -22 20 -103 -3 -105 -7
-119 -34 -128 -17 -5 -30 3 -64 40 -44 47 -86 61 -97 32 -6 -15 -55 -28 -62
-16 -3 5 -17 6 -33 3 -15 -3 -44 -6 -64 -6 -32 -1 -38 -4 -38 -23 0 -34 -19
-39 -26 -7 -34 159 -111 242 -185 203 -14 -8 -19 -21 -19 -55 0 -59 34 -95 90
-95 45 0 46 -1 24 -35 -12 -19 -13 -31 -5 -61 6 -20 8 -40 6 -44 -6 -10 -54
-4 -70 10 -7 6 -25 12 -39 14 -31 3 -56 23 -56 45 -1 20 -24 51 -39 51 -6 0
-12 6 -13 13 0 6 -2 17 -2 22 -1 10 -21 34 -63 79 -13 13 -23 33 -23 45 0 28
51 121 66 121 7 0 21 -12 32 -27 16 -22 23 -25 33 -16 10 10 8 16 -8 30 -27
24 -46 61 -39 78 2 7 -2 19 -10 25 -8 7 -14 17 -14 22 0 5 -9 18 -20 30 -21
23 -24 40 -14 100 4 24 13 40 25 43 11 4 24 16 30 27 15 28 -12 49 -52 41 -25
-5 -29 -2 -29 16 0 11 4 21 10 21 5 0 19 22 31 50 12 27 27 55 35 61 8 6 14
29 14 50 0 21 7 45 16 54 12 12 13 19 5 29 -9 11 -8 23 6 50 22 46 49 48 61 4z
m10515 -139 c12 -6 31 -23 43 -36 18 -23 25 -25 62 -18 31 5 46 14 55 32 12
22 15 23 28 11 8 -8 53 -27 99 -43 129 -42 133 -43 169 -92 28 -39 32 -52 27
-83 l-6 -37 52 -14 c51 -14 53 -15 61 -59 5 -25 15 -49 23 -53 20 -12 17 -37
-5 -37 -36 0 -43 -23 -21 -73 11 -26 29 -52 40 -60 24 -17 70 -113 70 -147 0
-71 -13 -99 -73 -160 -44 -46 -62 -58 -68 -48 -5 7 -9 15 -9 18 0 3 -12 6 -26
7 -15 0 -29 6 -33 11 -4 6 -18 15 -32 21 -32 12 -55 -4 -37 -26 15 -19 -8 -64
-30 -56 -9 4 -13 2 -9 -3 3 -6 -8 -23 -24 -38 -24 -23 -32 -26 -44 -16 -18 15
-45 6 -45 -14 0 -8 9 -21 21 -29 16 -12 19 -19 11 -34 -19 -34 -47 -50 -114
-61 -72 -13 -91 -10 -126 22 -18 16 -46 24 -120 32 -53 6 -100 9 -104 7 -5 -2
-8 -19 -8 -38 0 -27 5 -34 25 -39 38 -10 33 -51 -11 -91 -29 -27 -37 -43 -43
-86 -4 -30 -12 -63 -19 -74 -6 -11 -13 -32 -17 -48 -8 -40 -60 -60 -97 -38
-18 10 -28 24 -28 39 0 12 -12 34 -26 48 -34 35 -26 78 17 93 16 5 32 17 35
26 6 14 -8 82 -31 151 -5 17 -1 22 27 30 23 7 38 20 50 44 19 38 24 125 8 135
-5 3 -10 15 -10 26 0 11 -6 22 -14 25 -21 8 -8 34 17 34 12 0 32 12 45 27 19
22 22 34 17 63 -10 50 -23 70 -46 70 -41 0 -55 121 -19 175 12 19 20 47 20 75
0 25 5 61 10 80 6 19 8 52 4 72 -5 34 -8 37 -42 40 -54 4 -54 33 -2 89 23 24
48 55 57 69 11 19 38 34 106 57 108 36 112 36 140 22z m-1187 -420 c26 -24 32
-24 36 4 2 18 8 21 33 18 38 -4 45 -8 45 -29 0 -9 14 -32 30 -51 36 -40 36
-42 9 -61 -36 -26 -51 -65 -40 -108 6 -20 20 -43 31 -50 26 -16 25 -28 -6 -54
-29 -26 -52 -70 -56 -112 -3 -24 -11 -31 -56 -48 l-54 -20 -19 21 c-11 12 -26
21 -34 21 -8 0 -15 5 -15 10 0 17 -35 11 -53 -10 -10 -12 -29 -20 -47 -20 -24
0 -35 -8 -53 -37 -13 -21 -27 -47 -30 -58 -8 -23 26 -85 45 -85 9 0 8 -4 -2
-11 -12 -9 -11 -10 5 -4 11 4 36 12 55 17 62 18 90 40 90 70 0 21 5 28 19 28
25 0 35 -16 25 -38 -14 -32 -13 -47 3 -64 15 -17 15 -18 -5 -18 -12 0 -22 5
-22 10 0 25 -18 6 -24 -26 -4 -19 -16 -44 -27 -55 -10 -10 -19 -25 -19 -32 0
-16 87 -64 97 -53 4 5 2 11 -4 13 -7 3 -13 13 -13 23 0 10 -7 26 -16 34 -14
15 -14 17 0 32 9 8 16 20 16 25 0 15 52 10 105 -10 47 -18 51 -22 59 -63 7
-37 6 -48 -9 -65 -10 -12 -24 -19 -31 -16 -9 3 -14 -2 -14 -16 0 -12 5 -21 10
-21 6 0 10 -6 10 -13 0 -22 64 -115 88 -129 13 -7 32 -29 42 -49 20 -38 70
-69 112 -69 23 0 68 -25 58 -32 -21 -15 -113 -68 -119 -68 -12 0 -61 -55 -61
-68 0 -7 -5 -12 -11 -12 -6 0 -9 -9 -6 -20 6 -24 -18 -28 -27 -5 -4 12 -10 14
-25 5 -13 -7 -22 -7 -26 0 -10 16 -24 2 -64 -61 -21 -33 -40 -56 -44 -53 -3 4
-20 -5 -37 -20 -17 -14 -35 -26 -38 -26 -16 1 -36 20 -56 56 l-22 39 -134 1
c-96 1 -141 -2 -156 -12 -12 -7 -34 -14 -50 -16 -24 -3 -30 2 -37 27 -26 83
-27 84 -86 101 -43 13 -63 14 -85 5 -34 -12 -46 -7 -46 19 0 19 19 30 51 30
30 0 23 28 -18 75 -21 24 -47 53 -58 66 -12 13 -33 34 -48 46 -23 20 -27 30
-27 77 0 51 -2 55 -29 64 -31 11 -56 46 -45 63 3 6 6 27 6 47 0 24 7 45 21 59
22 25 19 40 -26 106 -16 23 -18 38 -12 83 5 43 3 61 -10 81 -13 19 -15 38 -11
81 3 32 7 74 9 94 4 47 17 61 77 87 27 12 55 29 62 39 20 28 52 42 97 42 22 0
43 5 46 10 3 6 24 10 46 10 32 0 46 6 70 32 28 32 30 32 57 18 15 -9 28 -26
30 -38 2 -13 10 -26 17 -28 21 -9 75 37 75 62 0 41 18 74 40 74 26 0 62 18 73
36 11 19 42 17 62 -3 13 -12 19 -13 24 -4 22 34 140 35 177 0z m-406 -5 c0 -9
-5 -14 -12 -12 -18 6 -21 28 -4 28 9 0 16 -7 16 -16z m-6650 -39 c7 -8 10 -21
7 -29 -3 -7 -1 -18 5 -24 13 -13 36 -51 44 -74 3 -10 12 -18 19 -18 19 0 65
-40 65 -56 0 -22 -39 -16 -72 12 -20 16 -40 24 -57 22 -25 -3 -26 -6 -23 -55
1 -29 -2 -53 -7 -53 -5 0 -7 -21 -4 -47 4 -43 21 -72 48 -84 30 -12 125 -72
125 -78 0 -4 -16 -22 -36 -39 -21 -19 -33 -36 -28 -43 4 -7 10 -26 14 -43 3
-17 11 -32 18 -32 7 -1 18 -2 25 -3 18 -2 -23 -31 -45 -31 -12 0 -18 -8 -18
-24 0 -18 11 -31 43 -49 46 -28 71 -21 62 17 -3 11 -8 33 -11 48 -4 17 0 41
10 62 9 19 16 39 16 45 0 6 5 11 10 11 11 0 13 39 4 64 -3 9 -12 16 -20 16 -8
0 -14 5 -14 10 0 6 -7 10 -15 10 -8 0 -15 6 -15 14 0 19 20 32 20 14 1 -8 5
-7 14 5 8 10 12 28 9 40 -4 20 -3 21 10 5 22 -27 27 -22 27 27 0 26 5 45 11
45 7 0 9 11 6 26 -6 32 22 64 56 64 12 0 33 -9 47 -20 14 -11 33 -20 43 -20
16 0 23 -17 18 -50 -1 -8 -2 -46 -1 -83 0 -46 -3 -66 -10 -62 -8 5 -10 -18 -9
-70 2 -73 1 -78 -26 -99 -24 -19 -27 -28 -23 -62 3 -21 8 -46 12 -56 6 -12 -5
-24 -46 -48 -51 -31 -98 -86 -98 -116 0 -9 11 -14 33 -14 45 0 77 -10 77 -24
0 -7 -23 -27 -51 -45 -65 -43 -123 -45 -202 -7 -67 31 -72 32 -89 7 -8 -11
-32 -27 -55 -36 -29 -12 -45 -25 -52 -45 -8 -25 -5 -34 25 -74 19 -26 39 -46
44 -46 16 0 11 -57 -6 -74 -8 -9 -25 -16 -36 -16 -11 0 -36 -14 -56 -31 -37
-33 -48 -34 -209 -19 -7 0 -2 62 8 87 14 39 40 60 70 59 25 -1 72 -36 50 -36
-16 0 -13 -17 4 -24 22 -8 65 11 65 30 0 12 -6 15 -26 10 -23 -6 -25 -4 -19
14 9 27 -12 52 -36 45 -28 -9 -47 37 -29 69 11 21 10 28 -8 51 -11 14 -23 44
-27 66 -6 37 -4 44 27 78 59 61 67 78 57 119 -14 61 -11 69 36 99 25 15 45 32
45 37 0 5 8 18 17 28 22 25 43 85 43 126 0 18 5 40 11 50 9 14 5 27 -20 64
-17 25 -31 59 -31 74 0 16 -3 46 -6 66 -6 33 -11 39 -43 48 -35 9 -37 12 -33
45 5 40 33 65 73 65 26 0 27 -2 25 -52 -1 -42 2 -53 16 -56 27 -5 51 25 52 66
1 33 -2 37 -26 40 -34 4 -35 14 -6 52 24 33 58 39 78 15z m1388 -98 c3 -12 -4
-17 -23 -17 -23 0 -25 2 -15 21 13 23 33 21 38 -4z m-1784 -118 c15 -11 36
-38 46 -60 11 -21 24 -39 28 -39 5 0 9 -23 10 -51 1 -51 1 -51 -26 -43 -15 4
-57 8 -95 9 -37 1 -72 6 -77 11 -6 6 -12 42 -14 81 -5 77 -9 71 64 101 34 15
34 15 64 -9z m166 -199 c0 -11 -9 -29 -20 -40 -11 -11 -20 -33 -20 -50 0 -22
-5 -30 -18 -30 -50 0 -44 59 11 111 35 34 47 36 47 9z m-1840 -99 c0 -6 -5
-13 -10 -16 -15 -9 -43 3 -35 15 8 13 45 13 45 1z m277 -3 c4 -7 8 -20 8 -28
2 -53 18 -98 38 -104 18 -4 18 -19 -1 -22 -4 0 -14 -3 -22 -7 -8 -3 -28 -8
-43 -12 -20 -4 -33 -16 -43 -40 -8 -19 -27 -41 -43 -49 -16 -9 -38 -28 -49
-43 -15 -21 -28 -27 -56 -27 -67 0 -75 41 -23 116 20 31 16 88 -9 109 -8 6
-14 23 -14 37 l0 26 16 -22 15 -22 24 25 c24 23 80 45 116 45 9 0 22 7 29 15
15 18 46 20 57 3z m6443 -58 c0 -7 -24 -20 -36 -20 -2 0 -4 9 -4 19 0 14 5 18
20 14 11 -3 20 -9 20 -13z m-6162 -42 c-3 -7 -13 -13 -23 -13 -10 0 -20 6 -22
13 -3 7 5 12 22 12 17 0 25 -5 23 -12z m2745 -5 c-7 -2 -19 -2 -25 0 -7 3 -2
5 12 5 14 0 19 -2 13 -5z m-2659 -75 c23 -11 26 -17 21 -42 -7 -38 -8 -38 -39
-30 -32 8 -34 24 -3 25 17 1 15 3 -9 8 -41 10 -54 19 -54 37 0 18 46 19 84 2z
m10177 -108 c18 0 5 -55 -14 -58 -25 -5 -32 23 -16 71 12 39 13 40 17 15 2
-16 8 -28 13 -28z m-8081 -45 c0 -8 -4 -15 -9 -15 -13 0 -22 16 -14 24 11 11
23 6 23 -9z m7765 -36 c-4 -5 -13 -9 -22 -9 -13 0 -13 3 -3 15 13 15 35 11 25
-6z m-9003 -134 c26 -17 47 -35 48 -41 0 -6 6 -17 14 -23 17 -14 26 -70 13
-78 -15 -9 -58 19 -52 35 3 8 -11 36 -31 62 -32 43 -42 48 -86 54 -59 8 -55
27 5 23 26 -1 60 -14 89 -32z m8779 5 c6 0 7 -4 4 -10 -12 -19 -25 -10 -24 18
1 16 3 20 6 10 2 -10 9 -18 14 -18z m-9763 -197 c4 -28 -18 -30 -54 -6 -19 12
-22 18 -12 25 24 16 63 5 66 -19z m956 21 c17 -6 23 -44 7 -44 -5 0 -15 -2
-23 -5 -7 -3 -22 1 -33 9 -16 12 -17 16 -6 30 14 17 30 20 55 10z m170 -109
c14 -30 31 -55 36 -55 6 0 10 -16 10 -35 0 -19 -5 -35 -11 -35 -6 0 -24 -13
-41 -30 -16 -16 -37 -30 -47 -30 -18 0 -45 43 -33 54 3 4 7 41 9 83 5 118 34
136 77 48z m-139 -109 c13 -6 16 -10 7 -13 -20 -8 -42 5 -42 24 0 11 3 14 8 7
4 -6 16 -14 27 -18z m1555 -386 c8 -5 11 -12 8 -16 -10 -9 -38 3 -38 16 0 12
10 13 30 0z m3827 -182 c-3 -8 -6 -5 -6 6 -1 11 2 17 5 13 3 -3 4 -12 1 -19z
m128 -48 c8 -13 -20 -24 -42 -16 -15 6 -15 8 -3 16 20 13 37 12 45 0z m48 -50
c5 -20 -3 -25 -33 -20 -15 2 -30 18 -30 33 0 4 13 7 29 7 20 0 30 -6 34 -20z
m547 -615 c0 -14 -4 -25 -9 -25 -10 0 -21 36 -13 44 12 13 22 5 22 -19z
m-6330 -524 c0 -5 9 -11 20 -14 11 -3 20 -12 20 -21 0 -22 -56 -22 -64 0 -10
27 -7 44 9 44 8 0 15 -4 15 -9z m-950 -651 c7 -14 8 -26 1 -38 -6 -9 -11 -12
-11 -5 0 6 -9 15 -20 18 -11 3 -20 15 -20 26 0 26 36 25 50 -1z m-357 -60 c6
-16 15 -30 19 -30 4 0 8 -4 8 -9 0 -11 -41 0 -87 24 -39 19 -42 32 -10 38 50
10 59 7 70 -23z m-2063 -129 c0 -6 -4 -13 -10 -16 -5 -3 -10 1 -10 9 0 9 5 16
10 16 6 0 10 -4 10 -9z m1830 -421 c0 -5 -5 -10 -11 -10 -5 0 -7 5 -4 10 3 6
8 10 11 10 2 0 4 -4 4 -10z m-120 -158 c0 -15 -2 -15 -10 -2 -13 20 -13 33 0
25 6 -3 10 -14 10 -23z m-600 -157 c0 -8 5 -15 10 -15 6 0 10 -7 10 -15 0 -18
-1 -18 -35 -5 -22 8 -24 13 -15 30 13 24 30 26 30 5z m-442 -140 c3 -3 -2 -11
-11 -18 -10 -6 -25 -28 -35 -46 -19 -38 -55 -54 -103 -44 -51 10 -32 69 28 87
11 4 27 14 34 22 9 11 23 14 47 10 19 -3 37 -8 40 -11z m-2868 -316 c0 -5 -6
-9 -14 -9 -8 0 -17 -8 -19 -17 -4 -15 -5 -14 -6 3 0 11 4 25 11 32 12 12 28 7
28 -9z m-50 -91 c0 -16 -6 -28 -12 -29 -10 0 -10 -2 0 -6 11 -4 18 -33 8 -33
-39 0 -61 41 -45 84 11 30 15 33 31 23 10 -7 18 -23 18 -39z m2508 -108 c-3
-30 -7 -35 -30 -38 -35 -4 -54 31 -44 82 l7 36 35 -23 c30 -19 34 -27 32 -57z
m-2418 15 c0 -16 -42 -30 -65 -21 -8 3 -12 12 -9 21 8 20 74 21 74 0z m68
-127 c5 -7 14 -33 19 -58 l9 -45 45 3 c27 2 50 9 59 21 8 9 21 16 28 15 6 -1
20 -2 30 -3 15 -1 15 -4 -4 -19 -36 -30 -59 -90 -47 -122 14 -38 -3 -57 -62
-65 -28 -4 -55 -12 -62 -17 -6 -5 -22 -6 -35 -3 -23 6 -24 9 -18 52 12 74 -8
106 -49 83 -30 -16 -74 3 -83 35 -9 34 2 45 45 45 41 0 65 16 82 55 15 37 26
43 43 23z m16717 -188 c-3 -5 -10 -10 -16 -10 -5 0 -9 5 -9 10 0 6 7 10 16 10
8 0 12 -4 9 -10z m-16294 -81 c45 -32 38 -119 -10 -119 -15 0 -43 -14 -65 -32
-43 -35 -100 -44 -117 -17 -19 31 -2 129 23 129 5 0 14 13 19 29 6 17 18 32
27 35 31 8 94 -4 123 -25z m16949 -379 c40 -13 56 -24 58 -39 4 -27 -39 -39
-76 -20 -15 7 -40 14 -56 16 -42 4 -45 12 -13 39 15 13 29 24 30 24 1 -1 27
-9 57 -20z m-772 -239 c3 -9 0 -12 -10 -8 -9 3 -21 0 -27 -6 -8 -8 -11 -5 -11
12 0 17 5 22 22 19 12 -2 24 -9 26 -17z m1296 -37 c8 -20 -11 -44 -34 -44 -23
0 -34 28 -19 46 16 19 45 18 53 -2z m-229 -324 c3 -5 1 -10 -4 -10 -6 0 -11 5
-11 10 0 6 2 10 4 10 3 0 8 -4 11 -10z m133 -23 c2 -11 -3 -17 -16 -17 -24 0
-32 8 -25 26 7 20 37 13 41 -9z"/>
<path d="M5165 12114 c-14 -12 -25 -26 -25 -29 0 -11 39 -4 54 10 8 8 19 15
25 15 19 0 12 17 -9 23 -12 3 -29 -4 -45 -19z"/>
<path d="M5625 11880 c3 -5 8 -10 11 -10 2 0 4 5 4 10 0 6 -5 10 -11 10 -5 0
-7 -4 -4 -10z"/>
<path d="M15577 11814 c-8 -8 1 -24 14 -24 5 0 9 7 9 15 0 15 -12 20 -23 9z"/>
<path d="M15342 11298 c2 -13 10 -23 18 -23 8 0 16 10 18 23 3 17 -2 22 -18
22 -16 0 -21 -5 -18 -22z"/>
<path d="M14418 11215 c-13 -13 5 -55 23 -55 15 0 19 -7 19 -34 0 -37 19 -60
47 -54 40 8 -5 108 -49 108 -11 0 -18 7 -18 20 0 19 -11 26 -22 15z"/>
<path d="M14385 11200 c-3 -5 -1 -10 4 -10 6 0 11 5 11 10 0 6 -2 10 -4 10 -3
0 -8 -4 -11 -10z"/>
<path d="M14540 10992 c0 -29 29 -62 56 -62 28 0 31 20 8 55 -20 30 -64 35
-64 7z"/>
<path d="M7323 11306 c-4 -7 -18 -19 -31 -25 -51 -27 2 -82 63 -67 22 6 25 12
25 50 0 31 -5 46 -16 50 -23 9 -32 7 -41 -8z"/>
<path d="M10374 14048 c7 -58 32 -114 55 -123 25 -10 51 25 51 70 0 43 -19 69
-67 94 -41 21 -46 15 -39 -41z"/>
<path d="M8908 11876 c-22 -16 -23 -33 -3 -53 19 -19 49 -9 41 13 -3 9 -6 24
-6 35 0 22 -8 24 -32 5z"/>
<path d="M12005 10230 c-3 -5 -1 -10 4 -10 6 0 11 5 11 10 0 6 -2 10 -4 10 -3
0 -8 -4 -11 -10z"/>
<path d="M5238 7768 c-8 -21 2 -38 24 -38 14 0 19 6 16 22 -3 25 -33 36 -40
16z"/>
<path d="M15759 7129 c-17 -33 9 -54 56 -45 42 8 57 33 30 52 -29 21 -72 17
-86 -7z"/>
<path d="M4250 6891 c0 -18 12 -41 21 -41 15 0 10 37 -6 44 -8 3 -15 1 -15 -3z"/>
<path d="M4255 6811 c-8 -26 1 -39 16 -24 8 8 8 17 1 29 -9 16 -10 15 -17 -5z"/>
<path d="M3660 6646 c0 -9 7 -16 16 -16 17 0 14 22 -4 28 -7 2 -12 -3 -12 -12z"/>
<path d="M575 6620 c-7 -12 -8 -11 27 -15 16 -2 29 2 32 11 4 10 -3 14 -24 14
-16 0 -32 -4 -35 -10z"/>
<path d="M3725 6600 c3 -5 13 -10 21 -10 8 0 14 5 14 10 0 6 -9 10 -21 10 -11
0 -17 -4 -14 -10z"/>
<path d="M9867 6584 c-14 -14 -7 -35 11 -32 9 2 17 10 17 17 0 16 -18 25 -28
15z"/>
<path d="M16243 6523 c-21 -8 -15 -23 12 -33 31 -12 52 -4 58 21 4 16 0 19
-26 18 -18 0 -38 -3 -44 -6z"/>
<path d="M772 6285 c-14 -30 -15 -65 -4 -83 7 -9 15 -10 35 -3 29 11 29 11 31
54 1 19 -5 32 -21 42 -29 19 -28 19 -41 -10z"/>
<path d="M16535 6230 c-3 -5 1 -22 9 -37 8 -16 15 -22 16 -14 0 7 6 11 15 8
25 -10 28 13 3 33 -26 22 -34 24 -43 10z"/>
<path d="M16626 6172 c-3 -5 -16 -7 -28 -5 -16 3 -27 -3 -36 -17 -11 -19 -11
-25 4 -41 23 -26 32 -24 47 9 6 15 18 32 26 38 9 7 11 13 3 18 -6 3 -13 2 -16
-2z"/>
<path d="M2916 5980 c-24 -27 -36 -49 -34 -63 3 -20 9 -22 60 -22 47 0 62 5
80 23 l23 23 -21 37 c-31 53 -61 54 -108 2z"/>
<path d="M2762 5978 c7 -19 38 -22 38 -4 0 10 -9 16 -21 16 -12 0 -19 -5 -17
-12z"/>
<path d="M2573 5941 c0 -24 5 -30 26 -34 24 -5 40 6 41 26 0 4 -11 7 -25 7
-16 0 -25 6 -25 15 0 8 -4 15 -8 15 -5 0 -9 -13 -9 -29z"/>
<path d="M16310 5736 c-43 -14 -49 -32 -16 -48 15 -6 40 -36 57 -65 33 -57 53
-73 71 -55 15 15 1 96 -22 123 -11 12 -20 25 -20 28 0 19 -37 28 -70 17z"/>
<path d="M16756 5648 c-23 -32 -20 -64 9 -86 21 -17 30 -18 55 -9 36 14 53 54
36 88 -17 35 -78 39 -100 7z"/>
<path d="M17165 5641 c-6 -5 -31 -21 -57 -35 -38 -21 -55 -25 -86 -20 -34 5
-42 3 -60 -21 -25 -31 -28 -55 -10 -73 21 -21 56 -13 80 18 21 29 23 30 30 10
4 -11 19 -25 33 -30 24 -9 30 -27 27 -72 -2 -23 41 -68 64 -68 11 0 55 29 99
65 79 64 109 77 118 53 6 -18 -5 -36 -57 -92 -25 -27 -46 -54 -46 -61 0 -15
32 -45 49 -45 6 0 11 -6 10 -12 -3 -25 1 -37 24 -65 13 -15 27 -40 31 -55 9
-39 33 -48 89 -36 26 5 47 14 47 19 0 13 37 11 45 -2 14 -22 55 -29 105 -17
39 9 55 9 74 -1 19 -10 28 -11 46 -1 20 11 25 10 36 -5 7 -9 10 -31 7 -50 l-5
-33 70 -4 c106 -6 143 -50 85 -104 -21 -19 -24 -27 -14 -37 9 -9 18 -8 42 6
17 9 37 17 44 17 16 0 76 55 69 62 -2 3 5 13 16 23 19 17 21 17 40 0 11 -10
18 -21 15 -25 -2 -3 12 -21 30 -39 19 -18 35 -37 35 -43 0 -5 7 -25 16 -44 21
-44 47 -44 68 1 13 28 23 35 45 35 15 0 28 6 28 13 0 6 4 35 8 64 7 46 5 53
-14 65 -11 7 -21 21 -21 31 0 11 -8 21 -19 24 -17 4 -26 31 -47 141 -3 16 -11
22 -32 22 -44 0 -64 -21 -66 -68 -1 -28 -9 -49 -24 -62 -32 -30 -40 -25 -48
28 -8 59 -55 144 -89 162 -15 8 -45 15 -68 15 -62 3 -63 3 -96 31 -21 17 -40
25 -60 22 -29 -3 -59 22 -74 63 -6 18 -60 21 -85 6 -7 -5 -14 -3 -18 6 -6 15
-38 31 -85 41 -14 3 -46 23 -71 45 -40 35 -53 41 -104 45 -33 2 -72 11 -89 20
-16 9 -42 16 -57 16 -16 0 -42 12 -61 30 -37 32 -47 35 -62 21z m365 -325 c0
-3 -4 -16 -10 -30 -8 -23 -15 -26 -55 -26 l-46 0 33 30 c27 25 78 42 78 26z
m173 -167 c-15 -15 -47 -7 -51 13 -4 21 28 29 48 11 10 -9 11 -16 3 -24z m-93
11 c0 -5 -5 -10 -11 -10 -5 0 -7 5 -4 10 3 6 8 10 11 10 2 0 4 -4 4 -10z"/>
<path d="M16547 5542 c-26 -28 -21 -38 31 -63 26 -12 50 -27 54 -33 12 -18 31
9 23 33 -3 12 -10 19 -14 16 -5 -2 -6 7 -3 21 3 16 -1 30 -9 35 -23 15 -65 10
-82 -9z"/>
<path d="M18080 5550 c-11 -7 -12 -12 -3 -21 14 -14 46 -4 41 13 -6 16 -20 19
-38 8z"/>
<path d="M2855 5490 c-8 -13 4 -32 16 -25 12 8 12 35 0 35 -6 0 -13 -4 -16
-10z"/>
<path d="M17067 5364 c-34 -33 -34 -51 -2 -66 35 -16 66 12 62 56 -3 40 -26
44 -60 10z"/>
<path d="M18574 5077 c-3 -8 -1 -36 3 -62 7 -39 14 -52 38 -66 17 -10 36 -18
43 -18 23 -2 13 63 -18 112 -30 46 -56 60 -66 34z"/>
<path d="M10534 4986 c-4 -11 -13 -15 -25 -11 -13 4 -19 1 -19 -9 0 -9 7 -16
16 -16 9 0 14 -6 11 -12 -2 -7 -18 -13 -36 -13 -40 -1 -71 -34 -71 -76 0 -37
-15 -45 -37 -18 -41 50 -55 60 -81 57 -22 -3 -29 -11 -40 -50 -10 -36 -18 -48
-33 -48 -10 0 -19 -4 -19 -9 0 -5 -13 -14 -29 -21 -37 -15 -46 -38 -25 -61 9
-10 13 -22 10 -28 -11 -16 13 -64 29 -58 23 9 58 -26 58 -58 0 -16 -5 -31 -11
-33 -49 -16 -79 -76 -49 -99 16 -14 73 10 87 37 6 11 27 27 46 35 20 8 45 26
56 40 16 20 23 23 39 15 23 -13 39 -5 39 19 0 9 5 22 11 28 12 12 -3 77 -22
98 -15 15 -10 41 11 60 19 17 20 16 50 -9 26 -22 38 -25 69 -20 23 4 48 1 62
-6 35 -19 69 -58 63 -73 -2 -7 6 -19 19 -26 19 -10 32 -10 68 0 24 7 50 20 57
29 11 13 11 13 6 -2 -4 -11 1 -18 15 -23 12 -3 21 -11 21 -16 0 -14 15 -11 37
9 26 22 39 118 17 126 -20 8 -19 84 3 108 13 14 14 21 5 30 -9 9 -18 6 -39
-14 -32 -31 -113 -62 -127 -48 -5 5 -10 21 -12 37 -3 33 -77 105 -99 97 -19
-8 -27 -34 -15 -49 8 -9 6 -14 -6 -19 -10 -4 -14 -2 -11 6 2 7 -3 18 -12 25
-14 11 -14 12 2 13 26 0 24 60 -2 60 -10 0 -32 3 -50 6 -23 5 -32 2 -37 -10z
m31 -87 c10 -14 1 -21 -19 -13 -9 3 -13 10 -10 15 7 12 21 11 29 -2z m-267
-114 c0 -31 -22 -28 -26 3 -2 14 2 22 11 22 9 0 15 -10 15 -25z m-31 -51 c-3
-3 -12 -4 -19 -1 -8 3 -5 6 6 6 11 1 17 -2 13 -5z m-87 -68 c0 -3 -4 -8 -10
-11 -5 -3 -10 -1 -10 4 0 6 5 11 10 11 6 0 10 -2 10 -4z"/>
<path d="M10551 4691 c-12 -8 -11 -12 3 -27 15 -14 19 -15 27 -3 17 27 -3 47
-30 30z"/>
<path d="M10088 4606 c-23 -17 -13 -56 14 -56 22 0 58 17 58 28 0 4 -12 15
-28 24 -22 13 -30 14 -44 4z"/>
<path d="M10515 4535 c-16 -8 -25 -15 -20 -15 6 -1 20 -3 33 -4 12 -2 29 -11
36 -22 13 -17 15 -18 21 -2 19 48 -15 69 -70 43z"/>
<path d="M10470 4488 c0 -4 7 -8 15 -8 8 0 15 4 15 8 0 5 -7 9 -15 9 -8 0 -15
-4 -15 -9z"/>
<path d="M5853 4448 c-28 -32 -25 -53 7 -55 20 -1 30 4 39 23 6 14 11 31 11
39 0 23 -34 18 -57 -7z"/>
<path d="M10498 4463 c7 -3 16 -2 19 1 4 3 -2 6 -13 5 -11 0 -14 -3 -6 -6z"/>
<path d="M10565 4456 c-3 -9 -7 -23 -10 -32 -3 -8 -2 -26 1 -40 5 -20 13 -24
40 -24 40 0 54 22 31 48 -8 9 -17 26 -19 37 -4 24 -36 32 -43 11z"/>
<path d="M9193 4305 c-68 -46 -86 -81 -78 -150 6 -47 5 -55 -9 -55 -17 0 -24
10 -29 48 -3 20 -45 70 -48 57 -1 -3 -2 -9 -3 -14 -2 -19 -16 -23 -49 -17 -25
5 -37 15 -50 41 -14 29 -23 36 -57 41 -23 4 -40 12 -40 20 0 7 -9 18 -20 24
-18 9 -25 6 -50 -20 -16 -17 -29 -35 -28 -38 5 -18 -15 -50 -37 -62 -14 -7
-25 -21 -25 -31 0 -10 -7 -24 -15 -33 -8 -8 -15 -31 -15 -50 0 -29 -4 -36 -19
-36 -11 0 -21 3 -24 8 -2 4 -2 1 0 -7 4 -15 -14 -41 -28 -41 -5 0 -9 9 -9 20
0 11 -4 20 -10 20 -5 0 -10 -6 -10 -14 0 -8 5 -18 10 -21 23 -14 9 -42 -25
-52 -37 -12 -50 -5 -57 32 -5 27 -48 46 -88 39 -42 -9 -99 -85 -100 -132 0
-45 26 -92 50 -92 35 0 79 -30 98 -67 9 -17 9 -28 0 -47 -12 -28 -36 -33 -69
-16 -13 8 -19 7 -19 0 0 -6 -4 -8 -10 -5 -6 4 -10 -10 -10 -34 0 -21 5 -41 12
-43 16 -6 0 -28 -20 -28 -9 0 -30 -7 -45 -15 -22 -11 -34 -12 -49 -4 -22 12
-88 3 -88 -11 0 -6 -11 -10 -25 -10 -20 0 -25 -5 -25 -24 0 -13 6 -29 14 -35
15 -13 17 -66 3 -88 -8 -12 -24 -10 -64 10 -13 6 -26 8 -29 4 -6 -6 -8 -42 -4
-62 11 -49 -40 -62 -60 -15 -7 18 -21 30 -39 33 -30 6 -33 22 -13 73 22 56 30
143 16 182 -17 49 -17 74 1 98 20 27 19 31 -15 49 -22 12 -44 14 -83 9 -48 -7
-51 -6 -38 9 11 15 11 17 -1 17 -8 0 -25 9 -38 20 -13 11 -28 20 -34 20 -19 0
-56 -30 -56 -46 0 -8 -9 -14 -20 -14 -11 0 -20 -4 -20 -8 0 -5 -18 -15 -40
-22 -27 -9 -40 -19 -40 -32 0 -14 -8 -18 -35 -18 -22 0 -35 5 -35 13 0 10 -11
12 -42 7 -27 -4 -42 -11 -40 -18 1 -7 -5 -15 -13 -18 -8 -4 -15 -17 -15 -30 0
-13 -4 -24 -10 -24 -5 0 -13 -18 -16 -40 -4 -22 -10 -40 -14 -40 -11 0 -55 96
-52 113 3 12 -15 8 -28 -8 -7 -8 -20 -15 -29 -15 -9 0 -25 -7 -35 -15 -11 -8
-28 -12 -39 -9 -34 11 -87 -6 -121 -39 -19 -18 -46 -40 -60 -50 -23 -16 -27
-25 -24 -60 3 -40 2 -42 -22 -39 -58 8 -131 5 -141 -5 -6 -6 -16 -28 -24 -49
-7 -24 -23 -44 -38 -52 -37 -18 -105 -5 -131 25 -15 18 -27 22 -46 18 -50 -13
-64 -43 -35 -75 24 -26 31 -112 11 -129 -21 -18 -20 -33 5 -65 16 -20 29 -26
60 -26 21 0 39 5 39 11 0 5 5 7 12 3 23 -14 136 -13 149 2 23 28 69 10 69 -28
0 -10 5 -18 11 -18 8 0 8 -5 -1 -15 -8 -9 -10 -27 -6 -47 4 -18 7 -44 7 -58 1
-53 16 -63 79 -57 l58 7 12 -33 c10 -30 9 -34 -25 -60 -27 -23 -35 -36 -35
-62 0 -19 7 -40 15 -49 8 -8 15 -19 15 -24 0 -12 44 -52 57 -52 6 0 13 -5 15
-11 2 -6 15 -13 30 -14 14 -2 37 -11 52 -20 20 -14 24 -21 15 -31 -18 -22 -1
-91 28 -114 32 -25 48 -25 80 0 32 25 77 26 111 2 29 -20 142 -54 170 -51 39
4 44 0 37 -31 -7 -33 0 -37 29 -15 11 8 27 15 36 15 19 0 93 67 81 74 -11 7
-8 37 7 61 12 19 12 19 26 2 23 -29 56 -13 57 26 0 18 6 50 13 72 10 35 15 40
41 40 26 0 30 -4 33 -32 2 -21 14 -41 33 -58 17 -14 32 -37 34 -50 3 -29 1
-27 38 -43 49 -21 83 -15 107 18 21 29 21 29 1 41 -22 14 -15 25 39 58 29 17
36 18 59 6 24 -12 26 -18 25 -71 -3 -99 -4 -104 -18 -104 -22 0 -26 -27 -8
-43 39 -34 64 -31 156 19 36 20 67 6 87 -39 11 -25 21 -33 46 -35 20 -2 36 3
45 14 45 57 82 82 141 97 34 8 67 12 74 10 20 -8 81 -99 91 -135 5 -21 15 -34
28 -36 10 -1 42 -7 70 -13 48 -11 54 -10 85 12 19 13 38 30 42 37 4 6 12 12
17 12 6 0 30 16 56 35 25 19 50 33 55 29 17 -10 9 -42 -14 -61 -29 -22 -44
-101 -21 -110 25 -9 113 39 129 71 10 18 12 33 6 39 -13 13 8 67 26 67 28 0
71 -33 76 -58 3 -17 -2 -32 -18 -47 -20 -18 -23 -29 -21 -81 4 -83 21 -116 59
-112 17 2 35 11 41 23 6 11 15 23 19 26 4 3 7 10 5 15 -1 5 4 19 11 32 16 30
8 52 -19 52 -16 0 -21 5 -18 22 2 17 13 24 51 33 27 5 45 13 41 17 -4 5 -9 21
-10 37 -6 47 -22 81 -41 81 -22 0 -57 28 -72 57 -10 19 -7 23 27 41 30 15 37
25 37 49 1 40 21 58 86 79 30 9 60 24 67 33 12 14 13 12 7 -16 -7 -37 3 -123
15 -123 5 0 15 6 22 13 7 8 30 17 51 21 46 9 57 -9 31 -49 -10 -15 -19 -38
-20 -52 -4 -32 12 -74 27 -71 6 2 14 -3 16 -9 6 -16 -21 -17 -48 -3 -13 7 -19
7 -19 0 0 -5 -20 -10 -45 -10 l-45 0 7 45 c6 44 5 45 -21 45 -15 0 -29 6 -32
14 -7 18 -26 15 -48 -7 -19 -19 -17 -54 2 -49 7 1 17 -9 24 -22 9 -22 13 -23
25 -10 22 22 33 17 33 -16 0 -16 5 -30 11 -30 6 0 9 -9 6 -20 -3 -13 0 -20 10
-20 8 0 12 -4 8 -9 -3 -6 4 -9 15 -8 12 1 18 7 16 14 -3 7 -1 15 5 18 16 10
129 11 132 1 2 -6 9 -6 17 -1 20 12 50 14 50 2 0 -5 -8 -22 -17 -38 -17 -28
-14 -47 6 -34 6 3 11 17 11 31 0 31 25 32 56 3 21 -20 26 -21 56 -8 18 7 38
18 43 24 22 22 37 64 30 82 -4 11 -9 13 -12 6 -3 -8 -14 -8 -41 -1 -51 14 -62
25 -62 63 0 34 -29 67 -70 80 -23 7 -34 36 -18 47 7 4 36 8 64 8 42 0 55 4 68
23 l15 22 21 -24 c11 -12 17 -27 14 -32 -3 -5 -3 -18 1 -28 7 -24 46 -20 75 9
12 12 36 28 54 35 32 14 76 10 76 -5 0 -13 44 2 57 19 17 22 16 47 -2 74 -19
29 -9 64 20 71 22 6 42 39 74 121 6 17 27 41 47 54 28 20 34 29 28 45 -7 21
-8 63 -3 129 4 47 -49 100 -89 91 -15 -4 -33 -11 -39 -16 -7 -6 -38 -7 -73 -3
-45 5 -65 3 -77 -6 -19 -16 -66 -119 -59 -127 6 -5 -40 -32 -54 -32 -4 0 -35
18 -69 40 -54 35 -65 39 -99 32 -28 -6 -38 -13 -40 -30 -3 -18 -10 -22 -45
-24 -72 -3 -87 0 -105 21 -16 20 -20 20 -69 7 -55 -15 -75 -7 -53 19 6 7 10
33 8 57 -3 41 -4 43 -33 40 -16 -2 -33 -8 -36 -14 -4 -6 -29 -23 -55 -37 -35
-19 -48 -32 -47 -46 2 -21 -15 -37 -29 -29 -4 3 -8 16 -8 29 0 34 -26 55 -69
55 -31 0 -38 4 -47 28 -12 34 -7 72 10 72 7 0 21 9 31 20 10 11 26 20 36 20
10 0 24 9 33 21 10 15 20 19 35 14 12 -3 21 -12 21 -18 0 -9 15 -11 53 -7 l52
5 -4 60 c-4 69 -6 76 -26 68 -26 -9 -77 19 -91 51 -8 17 -24 43 -35 57 -17 21
-19 31 -10 47 12 23 61 36 61 17 0 -16 29 -24 53 -16 10 4 26 21 37 39 14 22
27 32 45 32 14 0 25 5 25 11 0 14 -72 2 -81 -13 -4 -6 -16 -7 -30 -2 -13 4
-28 8 -34 9 -5 0 -34 13 -64 28 -30 15 -62 27 -72 27 -9 0 -19 7 -23 15 -3 8
-9 15 -13 14 -28 -5 -43 5 -54 35 -12 32 -14 33 -55 28 -24 -2 -50 -2 -59 2
-14 5 -14 9 -2 33 20 38 11 88 -18 103 -26 14 -51 63 -41 79 4 5 26 13 51 16
31 5 49 14 60 31 8 13 22 24 30 24 23 0 19 -57 -5 -77 -26 -23 -25 -33 10 -67
17 -16 30 -35 30 -43 0 -17 29 -17 36 1 8 22 64 0 64 -25 0 -11 11 -24 25 -31
14 -6 25 -15 25 -20 0 -4 16 -8 35 -8 33 0 35 2 35 34 0 25 -9 42 -34 66 -38
37 -37 49 6 95 15 17 28 35 28 41 0 13 -43 34 -70 34 -23 0 -26 22 -6 39 10 8
12 24 8 53 -4 32 -1 44 12 54 15 11 16 19 7 69 -8 41 -7 61 1 74 6 10 8 26 5
35 -5 14 -20 16 -86 15 -72 -1 -84 -4 -128 -34z m116 -279 c9 -11 6 -15 -14
-18 -29 -6 -45 10 -24 23 19 12 25 11 38 -5z m-1549 -315 c0 -14 10 -21 37
-28 l37 -8 -68 -29 c-78 -33 -96 -29 -108 25 -11 51 -5 59 52 59 42 0 50 -3
50 -19z m865 -32 c0 -7 -8 -15 -17 -17 -18 -3 -25 18 -11 32 10 10 28 1 28
-15z m237 -82 c21 -9 27 -17 23 -34 -2 -13 1 -25 6 -29 5 -3 7 -14 4 -24 -4
-13 0 -19 15 -22 28 -4 25 -21 -5 -30 -24 -6 -25 -4 -25 33 0 27 -4 38 -11 33
-6 -4 -27 -10 -45 -14 -28 -7 -34 -5 -34 9 0 9 -7 25 -15 35 -27 36 -19 55 23
55 20 -1 49 -6 64 -12z m-1192 -42 c6 -19 26 -47 45 -62 27 -23 34 -36 36 -72
3 -44 3 -45 -31 -49 -19 -2 -39 -8 -44 -13 -6 -5 -20 -9 -32 -9 -18 0 -22 7
-27 52 -4 28 -11 54 -17 58 -13 8 -3 98 12 118 20 24 46 13 58 -23z m1290 5
c0 -5 -9 -10 -20 -10 -11 0 -20 5 -20 10 0 6 9 10 20 10 11 0 20 -4 20 -10z
m-1607 -183 c48 -15 48 -27 1 -43 -54 -19 -102 3 -83 37 11 21 27 23 82 6z
m901 -2 c5 -15 -2 -45 -11 -45 -13 0 -34 32 -29 45 7 19 32 19 40 0z m1076
-20 c13 -35 2 -58 -24 -51 -11 3 -25 6 -29 6 -4 0 -6 12 -3 28 2 15 5 30 5 35
2 19 42 5 51 -18z m-1524 -103 c-11 -10 -14 3 -8 33 l7 30 3 -28 c2 -16 1 -31
-2 -35z m697 24 c21 -16 22 -30 1 -47 -14 -11 -18 -10 -30 6 -30 41 -10 70 29
41z m-92 -46 c40 -38 47 -110 17 -176 -22 -49 -63 22 -74 127 -7 69 -6 69 17
67 13 -2 31 -10 40 -18z m707 -143 c2 -19 -1 -27 -12 -27 -11 0 -16 10 -16 31
0 38 24 35 28 -4z m-655 -27 c3 -11 1 -18 -4 -14 -5 3 -9 12 -9 20 0 20 7 17
13 -6z m-655 -25 c2 -21 0 -26 -7 -16 -5 8 -18 12 -29 9 -13 -4 -23 0 -26 9
-9 23 3 34 32 31 22 -2 28 -9 30 -33z m1200 -66 c-2 -6 -8 -10 -13 -10 -5 0
-11 4 -13 10 -2 6 4 11 13 11 9 0 15 -5 13 -11z m-180 -56 c2 -15 -12 -33 -53
-67 -54 -44 -58 -45 -84 -32 -66 35 -62 69 9 79 22 3 52 15 66 26 33 26 58 24
62 -6z m672 -17 c14 -8 37 -34 51 -58 20 -33 32 -44 55 -46 24 -2 33 2 42 20
l11 23 7 -23 c5 -16 11 -21 23 -16 9 3 29 9 45 13 44 10 45 31 2 31 -25 0 -36
4 -36 15 0 8 5 15 10 15 6 0 10 9 10 20 0 11 4 20 10 20 12 0 160 -146 160
-158 0 -6 7 -23 15 -38 31 -60 9 -102 -38 -72 -36 24 -106 35 -144 23 -17 -6
-23 -3 -23 9 0 9 -4 16 -10 16 -5 0 -10 11 -10 23 0 35 -37 47 -114 40 -57 -5
-65 -4 -75 14 -5 11 -7 23 -4 27 7 6 -12 10 -35 7 -41 -6 -48 67 -9 94 26 18
25 18 57 1z m-212 -15 c18 -11 11 -61 -10 -75 -15 -9 -23 -5 -47 22 -17 17
-37 32 -45 32 -33 0 -14 19 22 23 20 2 44 4 52 5 8 1 21 -2 28 -7z m-1564 -14
c22 -16 10 -23 -43 -22 -37 0 -54 20 -24 28 33 9 49 7 67 -6z m787 -11 c35
-15 69 -48 69 -67 0 -33 -83 -54 -86 -21 -1 6 -2 24 -4 40 -1 15 -4 21 -7 14
-4 -10 -9 -7 -20 8 -13 19 -13 24 -2 31 17 11 11 11 50 -5z m593 -132 c9 -3
16 -11 16 -17 0 -6 7 -18 15 -27 13 -14 11 -16 -20 -12 -34 4 -54 30 -40 52 7
12 8 12 29 4z m-1747 -70 c-3 -3 -12 -4 -19 -1 -8 3 -5 6 6 6 11 1 17 -2 13
-5z m1101 -20 c4 -31 -13 -47 -42 -40 -33 8 -35 43 -3 56 29 12 41 7 45 -16z
m1202 -24 c0 -11 -4 -20 -10 -20 -5 0 -10 9 -10 20 0 11 5 20 10 20 6 0 10 -9
10 -20z m-2364 -51 c8 -13 -13 -29 -38 -29 -14 0 -17 12 -9 38 3 7 41 0 47 -9z
m2084 7 c0 -3 -4 -8 -10 -11 -5 -3 -10 -1 -10 4 0 6 5 11 10 11 6 0 10 -2 10
-4z m-1070 -38 c0 -39 -13 -50 -38 -32 -37 26 -26 48 26 53 6 0 12 -9 12 -21z
m-1100 -8 c0 -5 -4 -10 -10 -10 -5 0 -10 5 -10 10 0 6 5 10 10 10 6 0 10 -4
10 -10z"/>
<path d="M5515 4317 c-103 -59 -112 -74 -77 -116 23 -29 85 -43 109 -25 10 7
14 14 10 14 -4 0 -3 9 3 21 14 26 3 119 -13 118 -7 0 -21 -5 -32 -12z"/>
<path d="M5107 4059 c-13 -8 -15 -14 -7 -30 6 -10 17 -19 25 -19 8 0 20 -9 28
-20 16 -23 62 -22 62 2 0 22 -51 78 -72 78 -10 0 -26 -5 -36 -11z"/>
<path d="M5465 4061 c-7 -12 12 -24 25 -16 11 7 4 25 -10 25 -5 0 -11 -4 -15
-9z"/>
<path d="M6663 3945 c-13 -15 -32 -25 -48 -25 -28 0 -115 -77 -115 -101 1 -35
48 -58 103 -51 37 4 37 4 37 -31 0 -29 4 -35 25 -40 18 -3 29 1 35 14 15 26
12 59 -5 65 -22 9 -20 80 2 88 9 4 20 2 23 -5 4 -6 18 -9 31 -7 18 2 25 10 27
31 2 15 0 27 -5 27 -5 0 -23 14 -41 30 -18 17 -36 30 -40 30 -4 0 -17 -12 -29
-25z"/>
<path d="M6070 3897 c0 -21 12 -28 27 -16 19 16 16 29 -7 29 -11 0 -20 -6 -20
-13z"/>
<path d="M5660 3856 c0 -8 -7 -16 -15 -20 -8 -3 -15 -15 -15 -26 0 -16 6 -20
38 -20 47 0 95 37 81 63 -13 22 -89 24 -89 3z"/>
<path d="M8031 3800 c-30 -28 -51 -50 -45 -50 5 0 2 -5 -6 -10 -24 -17 16 -40
67 -40 41 0 45 -3 59 -35 15 -36 6 -75 -16 -75 -6 0 -10 -9 -10 -20 0 -25 8
-25 29 -2 9 11 27 21 41 25 14 3 35 9 48 12 16 6 22 3 22 -9 0 -9 4 -16 8 -16
14 0 43 36 35 44 -4 4 -2 11 5 15 10 6 11 13 1 34 -13 29 -25 34 -31 15 -3 -7
-13 -5 -31 7 -23 14 -27 24 -27 62 0 45 -8 58 -48 81 -34 19 -43 15 -101 -38z"/>
<path d="M5845 3811 c-11 -3 -35 -15 -52 -26 -29 -18 -33 -25 -33 -66 0 -67
-8 -71 -115 -57 -19 3 -20 -3 -20 -79 0 -85 8 -109 28 -82 7 8 19 18 29 21 15
6 40 43 54 80 8 22 49 15 81 -15 22 -20 24 -20 76 -2 54 18 54 18 75 -3 29
-29 36 -28 50 11 16 43 15 109 0 129 -17 20 -46 30 -53 18 -9 -15 -45 -12 -51
4 -3 8 -1 23 5 34 18 34 -20 52 -74 33z"/>
<path d="M6977 3813 c-4 -3 -7 -15 -7 -25 0 -28 34 -19 38 10 3 21 -16 31 -31
15z"/>
<path d="M7227 3813 c-14 -13 -6 -24 15 -21 27 4 36 28 11 28 -11 0 -23 -3
-26 -7z"/>
<path d="M5601 3704 c0 -11 3 -14 6 -6 3 7 2 16 -1 19 -3 4 -6 -2 -5 -13z"/>
<path d="M6202 3642 c-36 -23 -42 -32 -41 -57 4 -58 2 -61 -36 -57 -46 5 -65
-12 -65 -57 0 -41 -32 -81 -64 -81 -23 0 -76 38 -76 54 0 7 -6 20 -13 30 -12
16 -16 17 -35 5 -25 -16 -27 -31 -10 -93 11 -40 9 -47 -16 -90 -15 -25 -31
-46 -36 -46 -15 0 -38 -42 -45 -82 l-7 -37 41 -7 c42 -7 66 -31 73 -74 1 -12
12 -28 22 -34 11 -6 28 -19 39 -29 12 -12 27 -17 40 -13 12 3 27 6 33 6 11 0
44 68 44 92 0 8 14 41 31 73 17 31 29 58 27 60 -2 1 -13 8 -25 14 -30 15 -31
63 -2 92 17 17 27 20 57 13 54 -12 115 -6 124 11 5 8 25 17 46 21 20 4 45 13
55 22 21 18 23 52 3 52 -28 0 -28 22 0 51 37 38 55 38 48 -1 -14 -67 53 -35
110 53 20 29 20 29 -44 49 -9 3 -15 19 -16 41 -1 47 -9 55 -33 33 -16 -15 -27
-15 -87 -6 -38 6 -76 13 -84 15 -8 3 -34 -8 -58 -23z m-12 -132 c0 -5 -4 -10
-10 -10 -5 0 -10 5 -10 10 0 6 5 10 10 10 6 0 10 -4 10 -10z"/>
<path d="M6480 3644 c0 -8 5 -12 10 -9 6 3 10 10 10 16 0 5 -4 9 -10 9 -5 0
-10 -7 -10 -16z"/>
<path d="M6571 3621 c-16 -10 -6 -31 15 -31 8 0 14 9 14 20 0 22 -7 25 -29 11z"/>
<path d="M9876 3498 c-8 -33 -7 -71 3 -87 8 -12 16 -10 50 12 60 40 54 77 -15
91 -27 6 -32 4 -38 -16z"/>
<path d="M9586 3433 c-12 -12 -6 -43 9 -43 8 0 15 9 15 19 0 21 -13 34 -24 24z"/>
<path d="M7955 3360 c-3 -5 1 -10 9 -10 9 0 16 5 16 10 0 6 -4 10 -9 10 -6 0
-13 -4 -16 -10z"/>
<path d="M9642 3233 c-44 -29 -50 -46 -28 -76 11 -14 22 -17 50 -11 56 10 94
-10 106 -58 6 -21 18 -42 26 -45 16 -6 99 73 85 81 -4 3 -14 24 -21 47 l-14
41 -48 -6 c-45 -6 -50 -5 -74 24 -14 16 -29 30 -33 30 -4 0 -26 -12 -49 -27z"/>
<path d="M6367 3013 c-10 -9 -8 -53 2 -53 5 0 9 -12 9 -26 0 -41 16 -49 54
-27 29 17 33 24 31 58 -2 21 -8 42 -15 47 -16 9 -72 11 -81 1z"/>
<path d="M6590 2959 c0 -12 5 -19 12 -17 18 6 20 25 3 31 -10 5 -15 0 -15 -14z"/>
<path d="M10660 2631 c-6 -12 -10 -37 -8 -56 2 -30 5 -34 23 -29 32 10 47 29
48 65 2 30 -1 34 -25 37 -19 2 -30 -3 -38 -17z"/>
<path d="M10458 2626 c-16 -12 -16 -14 6 -33 27 -24 40 -19 50 20 6 23 3 27
-16 27 -13 0 -31 -7 -40 -14z"/>
<path d="M10186 2371 l-35 -36 25 -18 c13 -10 22 -22 19 -28 -6 -8 8 -13 28
-10 4 0 7 -4 7 -9 0 -6 18 -18 40 -27 22 -10 40 -21 40 -25 0 -5 11 -8 23 -8
28 0 57 29 57 56 0 33 -39 85 -75 100 -19 8 -35 21 -35 28 0 29 -57 15 -94
-23z"/>
<path d="M7884 2375 c-7 -18 3 -35 22 -35 15 0 17 9 8 34 -8 20 -23 21 -30 1z"/>
<path d="M9580 2215 c0 -8 5 -15 10 -15 6 0 10 7 10 15 0 8 -4 15 -10 15 -5 0
-10 -7 -10 -15z"/>
<path d="M10300 1958 c1 -25 37 -61 54 -55 24 10 31 36 13 54 -13 13 -19 14
-31 3 -11 -8 -16 -9 -16 -1 0 6 -4 11 -10 11 -5 0 -10 -6 -10 -12z"/>
</g>
</svg>
